<?xml version="1.0" encoding="UTF-8"?>
<svg id="Layer_1" xmlns="http://www.w3.org/2000/svg" version="1.1" viewBox="0 0 1900.5 652.8">
  <!-- Generator: Adobe Illustrator 29.1.0, SVG Export Plug-In . SVG Version: 2.1.0 Build 142)  -->
  <defs>
    <style>
      .st0 {
        fill: #d7282e;
      }

      .st1 {
        isolation: isolate;
      }
    </style>
  </defs>
  <path class="st0" d="M545.1,12.8H183.1L2,326.4l181.1,313.5h362l181-313.5L545.1,12.8ZM433.6,502.6h-245.5l16.5-87.5h207.1v24.3l72.3-47.2-72.3-47.2v25.3h-117.1c-60.7,0-110-49.2-110-110s49.2-110,110-110h245.6l-16.5,87.5h-206.9v-25.3l-72.3,47.2,72.3,47.2v-24.3h116.8c60.7,0,110,49.2,110,110s-49.2,110-110,110Z"/>
  <g>
    <g class="st1">
      <path class="st0" d="M1893.1,205.7c0,6.7-2.5,12.4-7.5,17.2-5,4.7-11,7.1-18,7.1s-13.1-2.4-18-7.1c-5-4.7-7.5-10.4-7.5-17.2s2.5-12.4,7.5-17.2c5-4.7,11-7.1,18-7.1s13.2,2.3,18.1,7c4.9,4.7,7.4,10.4,7.4,17.2ZM1889.4,205.7c0-5.8-2.1-10.7-6.4-14.7-4.2-4-9.4-6-15.4-6s-11.3,2-15.5,6c-4.2,4-6.4,8.9-6.4,14.7s2.1,10.6,6.4,14.7c4.2,4.1,9.4,6.1,15.5,6.1s11.1-2,15.4-6.1c4.2-4.1,6.4-9,6.4-14.7ZM1879.5,219.7h-4.9l-7.6-11h-5.2v11h-4v-27.8h11.9c2.6,0,4.8.8,6.6,2.3,1.8,1.6,2.8,3.6,2.8,6.1s-.9,4.7-2.7,6.1c-1.8,1.4-3.4,2.1-4.7,2.1l7.8,11.1ZM1875.1,200.4c0-1.4-.5-2.7-1.6-3.7-1.1-1-2.3-1.5-3.7-1.5h-7.9v10.1h7.9c1.4,0,2.6-.5,3.7-1.4,1.1-1,1.6-2.1,1.6-3.5Z"/>
    </g>
    <g>
      <path class="st0" d="M955.7,335.9c12.8,1.1,23.4,3.6,31.8,7.5,8.4,3.8,15,8.6,19.7,14.3,4.7,5.7,8,12.1,9.8,19.2,1.9,7.1,2.8,14.4,2.8,21.8v6.4c0,21.7-7.6,38.1-22.7,49.4-15.1,11.3-38.6,16.9-70.5,16.9h-44.2c-8.7,0-17.6,0-26.7-.2-9.1-.1-18-.4-26.5-.6l8.5-45.3c14.5.3,30.1.5,46.6.6,16.5.2,31.3.2,44.5.2s24-1.6,29.3-4.7c5.3-3.1,7.9-8.7,7.9-16.7s-1.6-11.1-4.9-14.5c-3.3-3.4-10.6-5.7-22-6.8l-47-3.8c-11.1-.9-20.6-3.1-28.4-6.8-7.8-3.7-14.2-8.3-19.2-13.9-5-5.6-8.5-11.8-10.7-18.8-2.1-7-3.2-14.3-3.2-22v-6.4c0-20.2,6.9-36,20.7-47.2,13.8-11.3,37.1-16.9,69.9-16.9s25.6,0,40.2.2c14.5.1,32.5.4,53.9.6l-8.5,45.3c-12.5-.3-23.5-.5-32.9-.6-9.4-.1-17.6-.2-24.6-.2h-32.7c-12.5,0-21.2,1.4-26.1,4.1-4.9,2.7-7.3,7.5-7.3,14.3s1.6,11.3,4.9,14.3c3.3,3,10.9,5.1,22.9,6.2l44.9,4.3Z"/>
      <path class="st0" d="M1183.5,470.5h-34.6c-18,0-32.7-1.3-44.2-3.8-11.5-2.6-20.7-7.1-27.4-13.5-6.7-6.4-11.3-15-13.9-25.9-2.6-10.8-3.8-24.4-3.8-40.6v-190.2l55.6-9v60.7h79.9l-9,45.7h-70.9v89.8c0,8.5.5,15.5,1.5,20.9,1,5.4,2.8,9.6,5.6,12.6,2.7,3,6.5,5,11.5,6,5,1,11.3,1.5,19,1.5h39.8l-9,45.7Z"/>
      <path class="st0" d="M1276.6,378.2c0,10.3.6,18.7,1.7,25.2,1.1,6.6,3.5,11.7,7.1,15.4,3.6,3.7,8.5,6.3,14.7,7.7,6.3,1.4,14.5,2.1,24.8,2.1h34.2c12.8,0,28.6-.3,47.4-.9l-8.5,42.7c-8,.3-15.1.5-21.4.6-6.3.1-12.3.2-18.2.2h-36.1c-20.2,0-36.9-2.3-50-6.8-13.1-4.6-23.4-11.1-31-19.7-7.6-8.5-12.8-19-15.8-31.4-3-12.4-4.5-26.6-4.5-42.5v-23.9c0-17.1,1.6-32.2,4.7-45.3,3.1-13.1,8.6-24.1,16.5-33.1,7.8-9,18.4-15.7,31.6-20.3,13.3-4.6,30-6.8,50.2-6.8s34.4,2.1,46.8,6.2c12.4,4.1,22.4,9.9,29.9,17.3,7.6,7.4,12.9,16.2,16,26.3,3.1,10.1,4.7,21.2,4.7,33.1v7.3c0,9.7-.6,17.6-1.7,23.7-1.1,6.1-3.1,10.9-5.8,14.3-2.7,3.4-6.2,5.7-10.5,6.8-4.3,1.1-9.6,1.7-15.8,1.7h-111.1ZM1322.8,283.3c-9.7,0-17.5.8-23.5,2.4-6,1.6-10.7,4.4-14.1,8.5-3.4,4.1-5.7,9.7-6.8,16.7-1.1,7-1.7,15.9-1.7,26.7h91.9v-9.8c0-8.3-.7-15.2-2.1-20.9-1.4-5.7-3.8-10.3-7.3-13.7-3.4-3.4-8.1-5.9-14.1-7.5-6-1.6-13.4-2.4-22.2-2.4Z"/>
      <path class="st0" d="M1507.4,378.2c0,10.3.6,18.7,1.7,25.2,1.1,6.6,3.5,11.7,7.1,15.4,3.6,3.7,8.5,6.3,14.7,7.7,6.3,1.4,14.5,2.1,24.8,2.1h34.2c12.8,0,28.6-.3,47.4-.9l-8.5,42.7c-8,.3-15.1.5-21.4.6-6.3.1-12.3.2-18.2.2h-36.1c-20.2,0-36.9-2.3-50-6.8-13.1-4.6-23.4-11.1-31-19.7-7.6-8.5-12.8-19-15.8-31.4-3-12.4-4.5-26.6-4.5-42.5v-23.9c0-17.1,1.6-32.2,4.7-45.3,3.1-13.1,8.6-24.1,16.5-33.1,7.8-9,18.4-15.7,31.6-20.3,13.3-4.6,30-6.8,50.2-6.8s34.4,2.1,46.8,6.2c12.4,4.1,22.4,9.9,29.9,17.3,7.6,7.4,12.9,16.2,16,26.3,3.1,10.1,4.7,21.2,4.7,33.1v7.3c0,9.7-.6,17.6-1.7,23.7-1.1,6.1-3.1,10.9-5.8,14.3-2.7,3.4-6.2,5.7-10.5,6.8-4.3,1.1-9.6,1.7-15.8,1.7h-111.1ZM1553.6,283.3c-9.7,0-17.5.8-23.5,2.4-6,1.6-10.7,4.4-14.1,8.5-3.4,4.1-5.7,9.7-6.8,16.7-1.1,7-1.7,15.9-1.7,26.7h91.9v-9.8c0-8.3-.7-15.2-2.1-20.9-1.4-5.7-3.8-10.3-7.3-13.7-3.4-3.4-8.1-5.9-14.1-7.5-6-1.6-13.4-2.4-22.2-2.4Z"/>
      <path class="st0" d="M1746.8,470.5h-55.6v-146.2c0-14.2,2-26.3,6-36.1,4-9.8,9.8-17.7,17.5-23.7,7.7-6,17.1-10.3,28.2-13,11.1-2.7,23.8-4.1,38-4.1h27.8c7.7,0,15.2.1,22.7.4l-9,46.2c-5.7-.3-12-.5-18.8-.6-6.8-.1-12.5-.2-17.1-.2-9.1,0-16.2.9-21.4,2.6-5.1,1.7-9.1,4.2-12,7.5-2.8,3.3-4.6,7.4-5.3,12.4-.7,5-1.1,10.9-1.1,17.7v137.2Z"/>
    </g>
  </g>
</svg>