<svg width="120" height="25" viewBox="0 0 120 25" fill="none" xmlns="http://www.w3.org/2000/svg">
<g clip-path="url(#clip0_43488_92610)">
<path d="M116.692 2.36865H116.195V0.421094H115.472V0H117.414V0.421094H116.692V2.36865ZM119.998 2.36865H119.535V0.388196H119.528L119.084 2.36865H118.594L118.16 0.388196H118.153V2.36865H117.689V0H118.418L118.849 1.8686H118.855L119.279 0H120.002V2.36865H119.998Z" fill="black"/>
<path d="M113.4 0.131836V23.5547H87.8625V0.131836H113.4Z" fill="black" stroke="white" stroke-width="0.264157"/>
<path d="M98.5511 21.7566H103.117V1.93555H99.0879C98.1833 3.35345 97.0634 3.46859 95.5227 3.46859V6.20241H98.5511V21.7533V21.7566Z" fill="white"/>
<path d="M35.3284 19.2294C37.6709 19.2294 39.5695 17.3444 39.5695 15.0185C39.5695 12.6926 37.6709 10.8075 35.3284 10.8075C32.9858 10.8075 31.0873 12.6926 31.0873 15.0185C31.0873 17.3444 32.9858 19.2294 35.3284 19.2294ZM26.0874 15.0152C26.0874 9.94232 30.2291 5.83008 35.3383 5.83008C40.4475 5.83008 44.5892 9.94232 44.5892 15.0152C44.5892 20.0881 40.4475 24.2003 35.3383 24.2003C30.2291 24.2003 26.0874 20.0881 26.0874 15.0152Z" fill="#FE000C"/>
<path d="M74.9084 23.6865H79.8818V0H74.9084V23.6865ZM67.1817 4.67151H72.155V0H67.1817V4.67151ZM67.1817 23.6865H72.155V6.33944H67.1817V23.6865ZM55.8169 19.2289C53.4743 19.2289 51.5758 17.3438 51.5758 15.0179C51.5758 12.692 53.4743 10.807 55.8169 10.807C58.1594 10.807 60.058 12.692 60.058 15.0179C60.058 17.3438 58.1594 19.2289 55.8169 19.2289ZM51.5228 23.6865V22.1535C52.7984 23.5549 54.412 24.0879 56.294 24.0879C61.3005 24.0879 65.0976 19.9164 65.0976 15.0475C65.0976 10.1786 61.3336 5.93808 56.294 5.93808C54.4783 5.93808 52.9011 6.50393 51.5228 7.6718V0H46.5494V23.6865H51.5228ZM0 0H7.73007L12.0971 14.5442H12.1633L16.5999 0H24.1279V23.6865H19.1545V6.93818H19.0883L14.317 23.6865H9.74791L5.03962 6.93818H4.97335V23.6865H0V0Z" fill="#0C479D"/>
</g>
<defs>
<clipPath id="clip0_43488_92610">
<rect width="120" height="25" fill="white"/>
</clipPath>
</defs>
</svg>
